<?xml version="1.0" encoding="utf-8"?>
<!-- Generator: Adobe Illustrator 19.1.0, SVG Export Plug-In . SVG Version: 6.00 Build 0)  -->
<svg version="1.1" xmlns="http://www.w3.org/2000/svg" xmlns:xlink="http://www.w3.org/1999/xlink" x="0px" y="0px" width="24px"
   height="24px" viewBox="0 0 24 24" enable-background="new 0 0 24 24" xml:space="preserve">
<g id="Bounding_Boxes">
	<path fill="none" d="M0,0h24v24H0V0z"/>
	<path fill="none" d="M0,0h24v24H0V0z"/>
</g>
<g id="Rounded">
  <path d="M12,17.27l4.15,2.51c0.76,0.46,1.69-0.22,1.49-1.08l-1.1-4.72l3.67-3.18c0.67-0.58,0.31-1.68-0.57-1.75l-4.83-0.41
    l-1.89-4.46c-0.34-0.81-1.5-0.81-1.84,0L9.19,8.63L4.36,9.04c-0.88,0.07-1.24,1.17-0.57,1.75l3.67,3.18l-1.1,4.72
		c-0.2,0.86,0.73,1.54,1.49,1.08L12,17.27z"/>
</g>
</svg>
